<svg width="114" height="110" viewBox="0 0 114 110" fill="none" xmlns="http://www.w3.org/2000/svg">
<g filter="url(#filter0_d_12980_113686)">
<rect y="36.5466" width="80" height="80" transform="rotate(-27.183 0 36.5466)" fill="#68FFFF"/>
<path d="M30.263 38.1777C30.208 38.3827 30.237 38.6013 30.343 38.7848L31.943 41.5559V41.5563C32.0487 41.7402 32.2234 41.8745 32.4284 41.9299C32.6334 41.9848 32.852 41.9566 33.0359 41.8506L34.1998 41.1784C34.6055 41.4581 35.0465 41.6827 35.5112 41.8466C35.9259 41.9881 36.3769 41.7695 36.5233 41.3566C36.6697 40.9438 36.4565 40.4898 36.0455 40.3384C35.5833 40.1759 35.1555 39.9291 34.7829 39.6105C34.5254 39.3895 34.1561 39.3552 33.8622 39.5248L32.9287 40.0641L32.1287 38.6784L33.0615 38.1399V38.1402C33.3547 37.9709 33.5097 37.6356 33.4487 37.3027C33.3547 36.8195 33.3547 36.3231 33.4487 35.8402C33.5097 35.507 33.3547 35.1717 33.0615 35.0027L32.1287 34.4635L32.9287 33.0778L33.8622 33.6171C34.1565 33.7867 34.5255 33.7521 34.7829 33.5306C35.1554 33.2121 35.5833 32.9653 36.0455 32.8028C36.3647 32.6896 36.578 32.3878 36.5783 32.0492V30.9706H38.1783V32.0499C38.1783 32.3885 38.3919 32.6903 38.7112 32.8035C39.1729 32.9667 39.6012 33.2135 39.9743 33.5314C40.2318 33.7521 40.6004 33.7864 40.8943 33.6171L41.8278 33.0778L42.6278 34.4635L41.695 35.002V35.0017C41.3157 35.2242 41.1868 35.711 41.4068 36.0921C41.6264 36.4728 42.1125 36.6049 42.495 36.3874L44.1203 35.4506C44.3046 35.3446 44.4389 35.1699 44.4939 34.9646C44.5492 34.7596 44.5203 34.541 44.4142 34.3571L42.8142 31.586C42.7078 31.4021 42.5328 31.2678 42.3278 31.2131C42.1224 31.1592 41.9046 31.1878 41.7203 31.2931L40.5564 31.9653V31.9649C40.31 31.7946 40.0496 31.6446 39.7782 31.5171V30.1706C39.7782 29.9585 39.6939 29.7549 39.5439 29.6049C39.3939 29.4549 39.1904 29.3706 38.9782 29.3706H35.7782C35.3365 29.3706 34.9782 29.7288 34.9782 30.1706V31.5152C34.7072 31.6438 34.4468 31.7935 34.1997 31.9634L33.0358 31.2906C32.8519 31.1852 32.6337 31.1567 32.4287 31.2106C32.2237 31.2656 32.049 31.3995 31.9429 31.5834L30.3429 34.3545C30.2358 34.5385 30.2065 34.7578 30.2615 34.9635C30.3165 35.1692 30.4512 35.3445 30.6358 35.4506L31.7972 36.121C31.7844 36.272 31.7779 36.4217 31.7779 36.5713C31.7779 36.721 31.7844 36.8706 31.7972 37.0217L30.6358 37.6906C30.4522 37.7974 30.3183 37.9727 30.263 38.1777L30.263 38.1777Z" fill="#272727"/>
<path d="M77.4368 35.9704H76.1961C76.1665 35.8961 76.1354 35.8214 76.1026 35.7479L76.9826 34.8679C77.2947 34.5557 77.2947 34.0493 76.9826 33.7368L73.8697 30.6264C73.5572 30.3139 73.0508 30.3139 72.7383 30.6264L71.8583 31.5064C71.7847 31.4736 71.7104 31.4425 71.6358 31.4129L71.6361 30.1704C71.6361 29.9582 71.5519 29.7546 71.4019 29.6046C71.2519 29.4546 71.0483 29.3704 70.8362 29.3704H66.4362C65.9944 29.3704 65.6362 29.7286 65.6362 30.1704V31.411C65.5619 31.4407 65.4872 31.4718 65.4137 31.5046L64.5337 30.6246C64.2212 30.3125 63.7148 30.3125 63.4026 30.6246L60.293 33.7375C59.9805 34.05 59.9805 34.5564 60.293 34.8689L61.173 35.7489C61.0608 36.0039 60.9626 36.2646 60.8783 36.5303C60.7458 36.9517 60.9801 37.401 61.4015 37.5335C61.8233 37.666 62.2722 37.4318 62.4048 37.0103C62.5208 36.6453 62.6691 36.291 62.8473 35.9518C63.0091 35.6421 62.9512 35.2632 62.7041 35.0161L61.9912 34.3025L63.9712 32.3226L64.6847 33.0354V33.0351C64.9322 33.2822 65.3112 33.3404 65.6208 33.1783C65.9601 33.0001 66.314 32.8519 66.6793 32.7361C67.0125 32.6311 67.2393 32.3222 67.2393 31.9729V30.9704H70.0393V31.9737C70.0393 32.3229 70.2657 32.6319 70.5993 32.7369C70.9643 32.8529 71.3186 33.0008 71.6575 33.1794C71.9675 33.3411 72.3464 33.2829 72.5935 33.0362L73.3071 32.3233L75.2871 34.3033L74.5742 35.0168C74.3271 35.264 74.2692 35.6429 74.431 35.9529C74.6096 36.2918 74.7574 36.6461 74.8735 37.0111C74.9785 37.3443 75.2874 37.5711 75.6367 37.5711H76.6368V40.371H75.6335C75.2842 40.371 74.9753 40.5978 74.8703 40.931C74.7542 41.2964 74.6064 41.6503 74.4278 41.9896C74.266 42.2992 74.3242 42.6782 74.571 42.9256L75.2839 43.6392L73.3039 45.6192L72.5903 44.9063C72.3432 44.6588 71.9643 44.6006 71.6543 44.7624C71.4454 44.8731 71.23 44.9717 71.0097 45.0581C70.6079 45.2263 70.4143 45.6849 70.5743 46.0899C70.7339 46.4949 71.1886 46.6977 71.5968 46.5463C71.6858 46.5109 71.7729 46.4742 71.8601 46.436L72.7401 47.3159C73.0526 47.6281 73.559 47.6281 73.8711 47.3159L76.9825 44.2046C77.2946 43.8924 77.2946 43.386 76.9825 43.0735L76.1025 42.1935C76.1354 42.1199 76.1664 42.0456 76.1961 41.971H77.4368C77.6489 41.971 77.8525 41.8867 78.0025 41.7367C78.1525 41.5867 78.2367 41.3831 78.2367 41.171V36.771C78.2371 36.5589 78.1528 36.355 78.0028 36.205C77.8528 36.0546 77.6489 35.9703 77.4368 35.9703L77.4368 35.9704Z" fill="#272727"/>
<path d="M34.9785 36.5704C34.9785 37.2068 35.2314 37.8175 35.6814 38.2674C36.1314 38.7174 36.7418 38.9703 37.3785 38.9703C38.0149 38.9703 38.6253 38.7174 39.0753 38.2674C39.5256 37.8174 39.7785 37.2067 39.7785 36.5704C39.7785 35.934 39.5256 35.3232 39.0753 34.8733C38.6253 34.4233 38.0149 34.1704 37.3785 34.1704C36.7417 34.1704 36.1313 34.4233 35.6814 34.8733C35.2315 35.3233 34.9785 35.934 34.9785 36.5704ZM38.1785 36.5704C38.1785 36.8939 37.9835 37.1857 37.6846 37.3093C37.3857 37.4332 37.0414 37.365 36.8128 37.1361C36.5839 36.9071 36.5157 36.5632 36.6392 36.2643C36.7632 35.9654 37.0549 35.7704 37.3785 35.7704C37.5906 35.7704 37.7942 35.8546 37.9442 36.0046C38.0942 36.1546 38.1785 36.3582 38.1785 36.5704Z" fill="#272727"/>
<path d="M65.1842 41.1234C65.0296 41.2688 64.9392 41.4699 64.9328 41.682C64.9264 41.8941 65.0042 42.0999 65.1499 42.2545C66.0503 43.2238 67.3142 43.773 68.6371 43.7706C69.8918 43.7756 71.0982 43.2888 71.9986 42.4152C72.8989 41.5413 73.4214 40.3499 73.4539 39.0956C73.4868 37.8413 73.0271 36.6242 72.1735 35.7049C71.3196 34.7852 70.14 34.2366 68.8872 34.1763C67.634 34.1156 66.4068 34.5484 65.4686 35.3813C64.5303 36.2142 63.9557 37.3817 63.8675 38.633C63.8453 38.8484 63.9114 39.0637 64.0507 39.2295C64.1903 39.3952 64.3907 39.4977 64.6068 39.5127C64.8228 39.528 65.036 39.4552 65.1971 39.3105C65.3585 39.1659 65.4543 38.9623 65.4628 38.7459C65.5235 37.9145 65.9075 37.1405 66.5317 36.5884C67.156 36.0366 67.9717 35.7505 68.8039 35.7919C69.6364 35.8334 70.4192 36.1987 70.9856 36.8102C71.5524 37.4213 71.857 38.2298 71.8353 39.0627C71.8135 39.8959 71.4667 40.6874 70.8692 41.268C70.2714 41.8488 69.4703 42.1727 68.6371 42.1705C67.7564 42.1712 66.9153 41.8041 66.3171 41.1577C66.1718 41.0027 65.9703 40.912 65.7578 40.9052C65.5453 40.8988 65.3389 40.9773 65.1843 41.1234L65.1842 41.1234Z" fill="#272727"/>
<path d="M66.6247 69.6783C67.0029 69.8633 67.4597 69.7233 67.6694 69.3583L70.4279 64.5808C70.6383 64.2169 70.5312 63.7519 70.1822 63.5169L68.188 62.1755V62.1751C68.388 61.5565 68.5541 60.9276 68.6862 60.2912L71.0862 60.1266C71.5069 60.098 71.833 59.748 71.8319 59.3266V53.8066C71.833 53.3855 71.5073 53.0355 71.0873 53.0066L68.6833 52.8409H68.683C68.5508 52.2048 68.3844 51.5763 68.1848 50.9577L70.179 49.6162C70.5279 49.3812 70.6351 48.9162 70.4247 48.5519L68.5222 45.2566V45.2569C68.4168 45.0716 68.2422 44.9362 68.0365 44.8802C67.8308 44.8244 67.6115 44.853 67.4268 44.9594C67.2422 45.0662 67.1079 45.2419 67.0533 45.448C66.999 45.6537 67.029 45.873 67.1365 46.0569L68.6654 48.7059L66.7816 49.9737C66.4758 50.1791 66.3501 50.5669 66.4766 50.913C66.8101 51.8291 67.0605 52.773 67.2255 53.7337C67.2887 54.0962 67.5912 54.3691 67.9583 54.3944L70.2319 54.5544V58.5784L67.9591 58.7384C67.5912 58.7637 67.2884 59.0369 67.2255 59.4001C67.0605 60.3609 66.8098 61.3048 66.4766 62.2209C66.3502 62.567 66.4759 62.9544 66.7816 63.1601L68.6655 64.428L66.6533 67.9126L64.6069 66.9119H64.6072C64.2765 66.7504 63.8783 66.8354 63.6422 67.1176C63.0158 67.864 62.3255 68.5544 61.579 69.1808C61.2969 69.4168 61.2119 69.815 61.3737 70.1458L62.3744 72.1922L58.8898 74.2044L57.6219 72.3205L57.6216 72.3201C57.4159 72.0144 57.0284 71.8883 56.6823 72.0151C55.7662 72.3483 54.8223 72.5991 53.8616 72.7641C53.4984 72.8269 53.2252 73.1298 53.1998 73.4976L53.0473 75.7704H51.8352C51.3934 75.7704 51.0352 76.1287 51.0352 76.5704C51.0352 77.0122 51.3934 77.3704 51.8352 77.3704H53.7937C54.2152 77.3715 54.5648 77.0454 54.5937 76.6247L54.7584 74.2247C55.3948 74.0926 56.0237 73.9265 56.6422 73.7265L57.9837 75.7208H57.984C58.219 76.0697 58.6837 76.1768 59.048 75.9665L63.8255 73.2079C64.1905 72.9983 64.3305 72.5415 64.1455 72.1632L63.0869 69.9986L63.0873 69.9982C63.569 69.5643 64.0283 69.1054 64.4623 68.6232L66.6247 69.6783Z" fill="#272727"/>
<path d="M48.2048 72.7638C47.244 72.5988 46.3001 72.3481 45.384 72.0149C45.0379 71.8881 44.6504 72.0142 44.4448 72.3199L43.1769 74.2037L39.6923 72.1916L40.693 70.1452V70.1455C40.8544 69.8148 40.7694 69.4166 40.4873 69.1805C39.7409 68.5541 39.0505 67.8637 38.4241 67.1173C38.1881 66.8352 37.7899 66.7502 37.4591 66.9116L35.413 67.9127L33.4009 64.4277L35.2848 63.1599C35.5905 62.9541 35.7166 62.5666 35.5898 62.2206C35.2566 61.3045 35.0058 60.3606 34.8408 59.3999C34.778 59.0367 34.4751 58.7634 34.1073 58.7381L31.8345 58.5824V54.5584L34.108 54.3984V54.3981C34.4751 54.3727 34.7776 54.0999 34.8409 53.7374C35.0059 52.7766 35.2562 51.8327 35.5898 50.9166C35.7166 50.5706 35.5905 50.1831 35.2848 49.9774L33.4009 48.7128L35.4131 45.2282L37.4595 46.2288H37.4591C37.7899 46.3903 38.1881 46.3053 38.4242 46.0231C39.0506 45.2767 39.7409 44.5863 40.4873 43.96C40.7695 43.7239 40.8545 43.3257 40.693 42.9949L39.6924 40.9485L43.177 38.9363L44.4448 40.8202V40.8206C44.6505 41.1263 45.038 41.2524 45.384 41.1256C46.3001 40.7924 47.2441 40.5416 48.2048 40.3766C48.568 40.3138 48.8412 40.0109 48.8666 39.6431L49.0266 37.3703H53.0505L53.2105 39.6431C53.2355 40.0109 53.5087 40.3138 53.8719 40.3766C54.8327 40.5416 55.7766 40.7924 56.6929 41.1256C57.0387 41.2502 57.4254 41.1249 57.6319 40.8206L58.8997 38.9367L62.3843 40.9489L61.3837 42.9953L61.384 42.9949C61.2226 43.3256 61.3072 43.7239 61.5897 43.96C62.3362 44.5864 63.0265 45.2767 63.6529 46.0231C63.7829 46.2035 63.9822 46.3217 64.2029 46.3492C64.424 46.3767 64.6461 46.311 64.8165 46.1681C64.9868 46.0249 65.09 45.817 65.1007 45.5949C65.1118 45.3728 65.0297 45.156 64.8743 44.9967C64.3229 44.3385 63.7258 43.7195 63.0872 43.1456L64.1457 40.981L64.1454 40.9806C64.3304 40.6024 64.1904 40.1456 63.8254 39.936L59.0479 37.1774C58.684 36.967 58.219 37.0742 57.9839 37.4231L56.6425 39.4173H56.6421C56.0236 39.2173 55.3946 39.0513 54.7583 38.9191L54.5936 36.5191C54.5651 36.0984 54.2151 35.7724 53.7936 35.7734H48.2737C47.8522 35.7724 47.5022 36.0984 47.4737 36.5191L47.309 38.9191H47.3087C46.6722 39.0513 46.0433 39.2173 45.4248 39.4173L44.0833 37.4231C43.8483 37.0742 43.3834 36.967 43.019 37.1774L38.2415 39.936C37.8765 40.1456 37.7369 40.6024 37.9215 40.9806L38.9801 43.1453V43.1456C38.498 43.5796 38.039 44.0385 37.6047 44.5206L35.4448 43.4624C35.0665 43.2774 34.6098 43.4174 34.4001 43.7824L31.6415 48.5592C31.4312 48.9231 31.5383 49.3881 31.8872 49.6231L33.8815 50.9646C33.6818 51.5831 33.5154 52.2117 33.3833 52.8478L30.9833 53.0135C30.5629 53.0425 30.2372 53.3924 30.2383 53.8135V59.3335C30.2372 59.7549 30.5636 60.1049 30.984 60.1335L33.384 60.2981C33.5161 60.9349 33.6825 61.5639 33.8822 62.1824L31.8872 63.5174C31.5383 63.7524 31.4312 64.2174 31.6415 64.5814L34.4001 69.3588V69.3592C34.6097 69.7238 35.0665 69.8638 35.4447 69.6792L37.6094 68.6206H37.6098C38.0437 69.1028 38.5026 69.5617 38.9847 69.996L37.9262 72.1607H37.9265C37.7415 72.5389 37.8815 72.9956 38.2465 73.2057L43.024 75.9642V75.9639C43.388 76.1746 43.8529 76.0671 44.088 75.7182L45.4294 73.7239H45.4298C46.0483 73.9239 46.6773 74.0904 47.3136 74.2225L47.4783 76.6225C47.5069 77.0429 47.8568 77.3689 48.2783 77.3679H48.3336C48.5454 77.3536 48.7426 77.2557 48.8822 77.0957C49.0218 76.9357 49.0922 76.7268 49.0776 76.515L48.8697 73.4964V73.4968C48.8436 73.1282 48.569 72.8253 48.2047 72.7639L48.2048 72.7638Z" fill="#272727"/>
<path d="M51.0371 42.9701C47.4303 42.9701 43.971 44.403 41.4207 46.9533C38.8703 49.5039 37.4375 52.9632 37.4375 56.5697C37.4375 60.1761 38.8704 63.6357 41.4207 66.1861C43.9713 68.7365 47.4306 70.1692 51.0371 70.1692C54.6435 70.1692 58.1031 68.7364 60.6535 66.1861C63.2039 63.6354 64.6366 60.1761 64.6366 56.5697C64.6431 53.5501 63.6341 50.6161 61.772 48.2394C61.6427 48.069 61.4509 47.9572 61.2388 47.9294C61.027 47.9015 60.8127 47.9594 60.6438 48.0905C60.4749 48.2215 60.3656 48.4147 60.3399 48.6269C60.3145 48.839 60.3749 49.0526 60.5077 49.2201C62.1513 51.3169 63.042 53.9054 63.0366 56.5697C63.0366 59.7523 61.7724 62.8047 59.522 65.0551C57.2717 67.3054 54.2192 68.5697 51.0367 68.5697C47.8542 68.5697 44.8018 67.3054 42.5513 65.0551C40.301 62.8048 39.0368 59.7523 39.0368 56.5697C39.0368 53.3872 40.301 50.3348 42.5513 48.0844C44.8017 45.8341 47.8542 44.5698 51.0367 44.5698C53.701 44.5644 56.2895 45.4551 58.3863 47.0987C58.7356 47.3633 59.2328 47.2976 59.5013 46.9515C59.7702 46.6051 59.7102 46.1073 59.367 45.8344C56.9902 43.9723 54.0563 42.9634 51.0367 42.9698L51.0371 42.9701Z" fill="#272727"/>
<path d="M56.6334 54.9701C56.6316 53.4855 56.0409 52.0622 54.9913 51.0123C53.9413 49.9627 52.5181 49.3719 51.0334 49.3701C50.1988 49.3698 49.3748 49.558 48.6231 49.9205C48.4178 50.003 48.2556 50.1665 48.1753 50.3726C48.0953 50.5787 48.1038 50.809 48.1992 51.0087C48.2949 51.208 48.4688 51.359 48.6799 51.4258C48.8906 51.4926 49.1199 51.4687 49.3128 51.3605C50.4792 50.8015 51.8445 50.8422 52.9756 51.4697C54.107 52.0972 54.8641 53.2337 55.008 54.5193C55.1516 55.8047 54.6637 57.0804 53.6991 57.9422C53.5298 58.0936 53.4334 58.3101 53.4334 58.5372V58.9701H52.8309L53.7045 55.0398C53.8056 54.5837 53.7199 54.1065 53.4663 53.7144C53.2127 53.3223 52.8127 53.0483 52.3552 52.9533C51.8981 52.8587 51.422 52.9512 51.0335 53.2101C50.6449 52.9509 50.1685 52.8583 49.7113 52.9533C49.2538 53.048 48.8535 53.3223 48.5999 53.7148C48.3467 54.1069 48.261 54.5844 48.3624 55.0405L49.236 58.9701H48.6335V58.5404C48.6335 58.3133 48.5371 58.0968 48.3678 57.9454C47.7221 57.3711 47.2806 56.6023 47.111 55.7547C46.941 54.9076 47.0521 54.0279 47.4271 53.2494C47.5842 52.858 47.4103 52.4119 47.0303 52.2302C46.6499 52.048 46.1935 52.1923 45.9871 52.5598C45.49 53.593 45.3239 54.7548 45.511 55.8859C45.6985 57.0173 46.23 58.0633 47.0335 58.8812V59.1173C46.3985 59.3387 45.8864 59.8177 45.6235 60.4366C45.3606 61.0555 45.371 61.7566 45.6524 62.3673C45.9339 62.9779 46.4603 63.4416 47.1014 63.6437C47.3117 64.8937 48.1035 65.9691 49.2346 66.5409C50.3656 67.1127 51.7013 67.1127 52.8325 66.5409C53.9635 65.9691 54.7553 64.8937 54.9657 63.6437C55.6067 63.4416 56.1332 62.978 56.4146 62.3673C56.696 61.7566 56.7064 61.0555 56.4435 60.4366C56.1807 59.8177 55.6685 59.3387 55.0335 59.1173V58.8812C56.0567 57.8362 56.6307 56.4327 56.6335 54.9702L56.6334 54.9701ZM49.9245 54.6908C49.9067 54.6337 49.9309 54.5715 49.9831 54.5412C50.0302 54.5051 50.0959 54.5051 50.1431 54.5412C50.4056 54.7176 50.7149 54.8119 51.0309 54.8119C51.3474 54.8119 51.6567 54.7176 51.9191 54.5412C51.9663 54.5055 52.0316 54.5055 52.0791 54.5412C52.1316 54.5712 52.1563 54.634 52.1381 54.6915L51.1934 58.9701H50.8734L49.9245 54.6908ZM51.0334 65.3696C50.5374 65.3689 50.0534 65.215 49.6481 64.9285C49.2431 64.6421 48.9363 64.2371 48.7703 63.7696H53.2967C53.1306 64.2371 52.8238 64.6421 52.4188 64.9285C52.0135 65.215 51.5296 65.3689 51.0335 65.3696H51.0334ZM54.2334 62.1696H47.8335C47.3917 62.1696 47.0335 61.8114 47.0335 61.3696C47.0335 60.9278 47.3917 60.5696 47.8335 60.5696H54.2334C54.6752 60.5696 55.0334 60.9278 55.0334 61.3696C55.0334 61.8114 54.6752 62.1696 54.2334 62.1696Z" fill="#272727"/>
<path d="M59.8383 54.9702C59.8383 55.4119 59.4801 55.7702 59.0383 55.7702C58.5965 55.7702 58.2383 55.4119 58.2383 54.9702C58.2383 54.5284 58.5965 54.1702 59.0383 54.1702C59.4801 54.1702 59.8383 54.5284 59.8383 54.9702Z" fill="#272727"/>
<path d="M43.8344 54.9702C43.8344 55.4119 43.4762 55.7702 43.0344 55.7702C42.5926 55.7702 42.2344 55.4119 42.2344 54.9702C42.2344 54.5284 42.5926 54.1702 43.0344 54.1702C43.4762 54.1702 43.8344 54.5284 43.8344 54.9702Z" fill="#272727"/>
<path d="M51.8363 46.9704C51.8363 47.4122 51.4781 47.7704 51.0363 47.7704C50.5945 47.7704 50.2363 47.4122 50.2363 46.9704C50.2363 46.5286 50.5945 46.1704 51.0363 46.1704C51.4781 46.1704 51.8363 46.5286 51.8363 46.9704Z" fill="#272727"/>
<path d="M44.5049 50.2771C44.2246 50.1153 43.8746 50.1382 43.6178 50.3353C43.361 50.5321 43.2481 50.8646 43.3321 51.1771C43.4156 51.4896 43.6796 51.721 44.0003 51.7632C44.321 51.8053 44.6356 51.6503 44.7974 51.37C45.0185 50.9875 44.8874 50.4982 44.5049 50.2771L44.5049 50.2771Z" fill="#272727"/>
<path d="M57.564 59.6631C57.8444 59.8249 58.1944 59.802 58.4511 59.6049C58.7079 59.4081 58.8208 59.0756 58.7369 58.7631C58.6533 58.4506 58.3894 58.2192 58.0686 58.177C57.7479 58.1349 57.4333 58.2899 57.2715 58.5702C57.0504 58.9527 57.1815 59.442 57.564 59.6631L57.564 59.6631Z" fill="#272727"/>
<path d="M55.7292 48.4419C55.891 48.1616 55.8682 47.8116 55.671 47.5548C55.4742 47.298 55.1417 47.1852 54.8292 47.2691C54.5167 47.3527 54.2853 47.6166 54.2432 47.9373C54.201 48.258 54.356 48.5726 54.6364 48.7344C55.0189 48.9555 55.5082 48.8244 55.7292 48.4419L55.7292 48.4419Z" fill="#272727"/>
<path d="M58.3638 51.6628C58.6441 51.501 58.7995 51.1864 58.757 50.8657C58.7149 50.5446 58.4834 50.2811 58.1709 50.1971C57.8584 50.1135 57.5263 50.2264 57.3292 50.4828C57.1324 50.7396 57.1095 51.0896 57.2713 51.37C57.492 51.7525 57.9813 51.8835 58.3638 51.6628L58.3638 51.6628Z" fill="#272727"/>
<path d="M44.5048 59.6631C44.7848 59.5013 44.9401 59.1867 44.8976 58.8659C44.8555 58.5449 44.6241 58.2813 44.3116 58.1974C43.9991 58.1138 43.6669 58.2267 43.4698 58.4831C43.273 58.7399 43.2501 59.0899 43.4119 59.3702C43.6326 59.7527 44.1219 59.8838 44.5048 59.6631L44.5048 59.6631Z" fill="#272727"/>
<path d="M47.4344 48.7344C47.7148 48.5727 47.8698 48.258 47.8276 47.9373C47.7855 47.6166 47.5541 47.3527 47.2416 47.2691C46.9291 47.1852 46.5966 47.298 46.3998 47.5548C46.2027 47.8116 46.1798 48.1616 46.3416 48.4419C46.5627 48.8244 47.0519 48.9555 47.4344 48.7344L47.4344 48.7344Z" fill="#272727"/>
<path d="M46.0533 32.9411C49.8648 32.2615 53.784 32.5157 57.4754 33.6829C57.5529 33.7079 57.6337 33.7204 57.7154 33.7204C58.1104 33.7204 58.4461 33.4322 58.5061 33.0418C58.5661 32.6515 58.3322 32.2757 57.9554 32.1572C54.019 30.9129 49.8397 30.6411 45.7754 31.3643C45.5661 31.4011 45.38 31.5193 45.2582 31.6932C45.1365 31.8672 45.0886 32.0822 45.1254 32.2911C45.2018 32.7268 45.6165 33.0175 46.0522 32.9411L46.0533 32.9411Z" fill="#272727"/>
<path d="M74.0424 49.5594C73.837 49.6126 73.6613 49.7451 73.5538 49.928C73.4459 50.1108 73.4156 50.3291 73.4688 50.5344C74.5678 54.7819 74.4827 59.249 73.2231 63.4514C71.9639 67.6539 69.5778 71.4313 66.3242 74.3743C65.9963 74.6707 65.9706 75.1768 66.2674 75.5046C66.5638 75.8325 67.0699 75.8578 67.3977 75.5614C70.8684 72.4221 73.4134 68.3925 74.7566 63.9089C76.1001 59.4261 76.1902 54.6609 75.0177 50.1298C74.9055 49.703 74.4695 49.4476 74.0423 49.5587L74.0424 49.5594Z" fill="#272727"/>
<path d="M69.4359 38.9702C69.4359 39.4119 69.0777 39.7702 68.6359 39.7702C68.1942 39.7702 67.8359 39.4119 67.8359 38.9702C67.8359 38.5284 68.1942 38.1702 68.6359 38.1702C69.0777 38.1702 69.4359 38.5284 69.4359 38.9702Z" fill="#272727"/>
<rect x="0.236941" y="36.6228" width="79.648" height="79.648" transform="rotate(-27.183 0.236941 36.6228)" stroke="#272727" stroke-width="0.351966"/>
</g>
<defs>
<filter id="filter0_d_12980_113686" x="0" y="0" width="113.711" height="109.711" filterUnits="userSpaceOnUse" color-interpolation-filters="sRGB">
<feFlood flood-opacity="0" result="BackgroundImageFix"/>
<feColorMatrix in="SourceAlpha" type="matrix" values="0 0 0 0 0 0 0 0 0 0 0 0 0 0 0 0 0 0 127 0" result="hardAlpha"/>
<feOffset dx="6" dy="2"/>
<feComposite in2="hardAlpha" operator="out"/>
<feColorMatrix type="matrix" values="0 0 0 0 0 0 0 0 0 0 0 0 0 0 0 0 0 0 1 0"/>
<feBlend mode="normal" in2="BackgroundImageFix" result="effect1_dropShadow_12980_113686"/>
<feBlend mode="normal" in="SourceGraphic" in2="effect1_dropShadow_12980_113686" result="shape"/>
</filter>
</defs>
</svg>
