<svg width="162" height="158" viewBox="0 0 162 158" fill="none" xmlns="http://www.w3.org/2000/svg">
<g filter="url(#filter0_d_12621_110439)">
<g clip-path="url(#clip0_12621_110439)">
<rect y="52.8191" width="115.62" height="115.62" transform="rotate(-27.183 0 52.8191)" fill="#68FF77"/>
<g clip-path="url(#clip1_12621_110439)">
<path d="M80.7182 59.4997L78.2198 62.7132L78.2201 62.7137C77.2303 62.69 76.2404 62.7629 75.2644 62.9301L72.1993 59.871L66.5602 62.7114L67.1938 66.9953L65.2607 69.2407L61.1911 69.3349L61.1909 69.3355C60.2007 71.2104 59.5314 73.238 59.211 75.3342L62.4245 77.8325L62.641 80.7882L59.5819 83.8533L61.0022 86.6732L67.5665 83.3668C65.7103 79.6814 65.9611 75.286 68.2245 71.8355C70.4882 68.3855 74.4202 66.405 78.5399 66.6397C82.6598 66.8749 86.341 69.29 88.1972 72.9752L94.7615 69.6688L93.3412 66.8489L89.0573 67.4824C88.3728 66.7675 87.6209 66.1197 86.8114 65.5495L86.7168 61.4801L86.717 61.4795C84.8421 60.4893 82.8145 59.8201 80.7179 59.4998L80.7182 59.4997Z" fill="#272727"/>
<path d="M90.1775 107.248L93.9286 105.359C94.9232 104.858 95.6783 103.982 96.0278 102.924C96.3766 101.866 96.2912 100.713 95.7902 99.7186L84.5371 105.387C85.0381 106.381 85.9139 107.136 86.9717 107.486C88.0297 107.835 89.1829 107.749 90.1775 107.248Z" fill="#272727"/>
<path d="M74.707 99.7808C77.8437 100.285 80.5572 102.243 82.0224 105.063L82.189 105.393L88.7533 102.087L85.739 96.1025L83.5448 96.1091L83.5446 96.1087C82.0864 96.1179 80.6549 95.7184 79.4125 94.9554C78.1696 94.1926 77.1658 93.0969 76.514 91.7925C76.2643 91.2947 76.222 90.7187 76.3965 90.19C76.571 89.6612 76.9479 89.2236 77.4448 88.9723L79.3203 88.0276C79.8181 87.7779 80.394 87.7356 80.9228 87.9101C81.4516 88.0846 81.8892 88.4615 82.1405 88.9584L84.016 88.0137C83.7663 87.516 83.724 86.94 83.8985 86.4112C84.073 85.8825 84.4499 85.4449 84.9468 85.1935L86.8224 84.2489C87.3201 83.9992 87.8961 83.9568 88.4248 84.1314C88.9536 84.3059 89.3912 84.6828 89.6425 85.1797C90.3027 86.4799 90.5856 87.9388 90.4587 89.3915C90.3322 90.844 89.8011 92.2321 88.9257 93.3983L88.6298 93.7956L86.9459 92.5407L87.2418 92.1434C87.8828 91.2894 88.2721 90.2729 88.3649 89.209C88.4578 88.1451 88.2506 87.0763 87.7669 86.1244L85.8914 87.0691C86.1411 87.5669 86.1835 88.1428 86.0089 88.6716C85.8344 89.2003 85.4575 89.6379 84.9606 89.8893L83.0851 90.8339C82.5873 91.0836 82.0114 91.126 81.4826 90.9515C80.9538 90.7769 80.5163 90.4 80.2649 89.9031L78.3894 90.8478C78.8664 91.8032 79.6019 92.6058 80.512 93.1645C81.4222 93.7232 82.4707 94.0155 83.5384 94.0088L86.3816 94.0006L86.3814 94.0002C86.7793 93.9993 87.1435 94.2231 87.3223 94.5781L90.6287 101.142L97.193 97.836L97.0264 97.5053C95.6331 94.6496 95.6745 91.3033 97.137 88.483C98.6008 85.5612 99.3609 82.3374 99.3558 79.069C99.3515 75.8008 98.5822 72.5795 97.11 69.6617L59.5996 88.5554C61.0677 91.4752 63.1983 94.011 65.8218 95.96C68.4451 97.9096 71.4879 99.2179 74.7071 99.7809L74.707 99.7808Z" fill="#272727"/>
<path d="M69.3721 58.9433L68.3606 56.9351C69.395 56.0294 69.9203 54.6746 69.7674 53.3083C69.6145 51.942 68.8024 50.7371 67.5936 50.0826C66.3846 49.4278 64.932 49.4062 63.7042 50.0247C62.4763 50.6432 61.6288 51.8232 61.4355 53.1845C61.2418 54.5453 61.7266 55.9151 62.7334 56.8513C63.7403 57.7874 65.1416 58.1717 66.4851 57.8798L67.4966 59.888L69.3721 58.9433Z" fill="#272727"/>
<path d="M52.0903 89.9865L60.6595 106.999C59.6251 107.905 59.0998 109.26 59.2527 110.626C59.4056 111.992 60.2177 113.197 61.4264 113.852C62.6354 114.506 64.088 114.528 65.3159 113.91C66.5438 113.291 67.3912 112.111 67.5846 110.75C67.7782 109.389 67.2935 108.019 66.2866 107.083C65.2797 106.147 63.8784 105.763 62.535 106.054L54.4382 89.9796L57.2514 88.5626L56.3068 86.6871L52.5557 88.5764C52.3071 88.7017 52.1182 88.9207 52.0309 89.1851C51.9437 89.4495 51.9651 89.7379 52.0903 89.9865L52.0903 89.9865Z" fill="#272727"/>
<path d="M111.299 81.4924L102.73 64.4798C102.604 64.2312 102.385 64.0423 102.121 63.955C101.856 63.8678 101.568 63.8892 101.319 64.0144L97.5684 65.9038L98.5131 67.7793L101.326 66.3623L109.423 82.4371C108.389 83.3428 107.863 84.6976 108.016 86.0639C108.169 87.4302 108.981 88.6351 110.19 89.2896C111.399 89.9444 112.852 89.966 114.08 89.3475C115.307 88.729 116.155 87.549 116.348 86.1877C116.542 84.8269 116.057 83.4571 115.05 82.5209C114.043 81.5848 112.642 81.2005 111.299 81.4924L111.299 81.4924Z" fill="#272727"/>
<path d="M88.5652 38.695C87.3369 39.3105 86.4886 40.4889 86.2938 41.8487C86.0993 43.209 86.5836 44.5778 87.5899 45.5128C88.5964 46.4481 89.9973 46.8306 91.3393 46.5368L91.8784 47.6072L84.3764 51.386C84.1277 51.5112 83.9388 51.7302 83.8516 51.9946C83.7643 52.259 83.7857 52.5474 83.911 52.7961L86.745 58.4226L88.6205 57.4779L86.2588 52.7892L93.7609 49.0104C94.0096 48.8851 94.1984 48.6661 94.2857 48.4018C94.373 48.1374 94.3516 47.849 94.2263 47.6003L93.2148 45.5921C94.2498 44.6887 94.7764 43.3355 94.6239 41.9699C94.4717 40.6049 93.66 39.4008 92.4512 38.7473C91.2426 38.0943 89.7909 38.0745 88.565 38.6951L88.5652 38.695Z" fill="#272727"/>
<path d="M42.5769 71.0986L43.5884 73.1068C43.7137 73.3555 43.9327 73.5443 44.1971 73.6316C44.4614 73.7189 44.7498 73.6975 44.9985 73.5722L52.5006 69.7935L55.3346 75.42L57.2102 74.4753L53.9038 67.911C53.7785 67.6623 53.5595 67.4735 53.2951 67.3862C53.0307 67.2989 52.7423 67.3203 52.4937 67.4456L44.9916 71.2243L44.4524 70.1539C45.4868 69.2481 46.0121 67.8934 45.8592 66.5271C45.7063 65.1607 44.8942 63.9558 43.6854 63.3014C42.4764 62.6465 41.0238 62.625 39.796 63.2434C38.5681 63.8619 37.7206 65.0419 37.5273 66.4032C37.3336 67.7641 37.8184 69.1339 38.8252 70.07C39.8321 71.0062 41.2334 71.3904 42.5769 71.0986L42.5769 71.0986Z" fill="#272727"/>
<path d="M72.707 74.8992L78.3336 72.0651L80.6953 76.7539L75.0688 79.588L72.707 74.8992Z" fill="#272727"/>
</g>
</g>
<rect x="0.430025" y="52.9573" width="114.981" height="114.981" transform="rotate(-27.183 0.430025 52.9573)" stroke="black" stroke-width="0.638785"/>
</g>
<defs>
<filter id="filter0_d_12621_110439" x="0" y="0" width="161.67" height="157.669" filterUnits="userSpaceOnUse" color-interpolation-filters="sRGB">
<feFlood flood-opacity="0" result="BackgroundImageFix"/>
<feColorMatrix in="SourceAlpha" type="matrix" values="0 0 0 0 0 0 0 0 0 0 0 0 0 0 0 0 0 0 127 0" result="hardAlpha"/>
<feOffset dx="6" dy="2"/>
<feComposite in2="hardAlpha" operator="out"/>
<feColorMatrix type="matrix" values="0 0 0 0 0 0 0 0 0 0 0 0 0 0 0 0 0 0 1 0"/>
<feBlend mode="normal" in2="BackgroundImageFix" result="effect1_dropShadow_12621_110439"/>
<feBlend mode="normal" in="SourceGraphic" in2="effect1_dropShadow_12621_110439" result="shape"/>
</filter>
<clipPath id="clip0_12621_110439">
<rect y="52.8191" width="115.62" height="115.62" transform="rotate(-27.183 0 52.8191)" fill="white"/>
</clipPath>
<clipPath id="clip1_12621_110439">
<rect width="83" height="83.015" fill="white" transform="translate(22.1426 59.7625) rotate(-26.7342)"/>
</clipPath>
</defs>
</svg>
