<svg width="86" height="86" viewBox="0 0 86 86" fill="none" xmlns="http://www.w3.org/2000/svg">
<g clip-path="url(#clip0_12621_110441)">
<rect y="29.103" width="63.7058" height="63.7058" transform="rotate(-27.183 0 29.103)" fill="#68FF77"/>
<g clip-path="url(#clip1_12621_110441)">
<path d="M34.4747 47.3238C34.9188 48.1968 35.6808 48.8458 36.6127 49.149C36.7696 49.1937 36.9303 49.1792 37.0638 49.1113C37.197 49.0435 37.311 48.9182 37.3616 48.763C37.4609 48.4581 37.2903 48.1227 36.9757 48.0237C36.3486 47.8195 35.8312 47.3774 35.5325 46.7903C34.9118 45.5703 35.4024 44.0633 36.6224 43.4426C37.2933 43.1013 38.0698 43.0805 38.755 43.38C39.0525 43.5212 39.4015 43.3775 39.5374 43.078C39.6674 42.7769 39.5309 42.4239 39.2354 42.2957C38.224 41.8459 37.0744 41.8788 36.0871 42.3811C34.2839 43.2985 33.5553 45.5167 34.4747 47.3238L34.4747 47.3238Z" fill="black"/>
<path d="M34.2387 28.0169C32.3251 27.3683 30.2282 28.4063 29.5798 30.3199C29.342 31.0314 29.3205 31.7814 29.5205 32.4858C28.9412 32.507 28.3587 32.6544 27.8173 32.9298C25.816 33.948 25.0145 36.4098 26.0366 38.4187C26.2344 38.8075 26.4989 39.1386 26.7992 39.4367C25.0746 40.9139 24.5088 43.4238 25.5852 45.5394C25.7364 45.8367 25.9145 46.111 26.1171 46.3678C25.4792 47.8971 25.5407 49.6031 26.2971 51.0898C27.3192 53.0988 29.3813 54.2188 31.4929 54.1715C31.4382 55.0825 31.6187 56.0032 32.0357 56.8227C33.3274 59.3617 36.4465 60.3711 38.9855 59.0793C39.4086 58.8641 39.7872 58.5707 40.1218 58.2565C40.2056 58.4968 40.2781 58.7334 40.3906 58.9546C41.5872 61.3067 44.4861 62.2507 46.8383 61.0539C49.198 59.8534 50.1343 56.9585 48.9376 54.6062L36.4897 30.1398C36.4741 30.1092 36.4587 30.0789 36.4373 30.056C36.033 29.0908 35.2378 28.3582 34.2387 28.0169L34.2387 28.0169ZM38.8626 37.4166C38.1251 37.2402 37.3203 37.2992 36.5919 37.6697C36.1612 37.8889 35.7865 38.19 35.4849 38.569C35.2857 38.819 35.3227 39.1938 35.5825 39.4025C35.8441 39.6054 36.2188 39.5681 36.4233 39.301C36.6151 39.0642 36.8566 38.869 37.131 38.7294C38.1792 38.1961 39.4736 38.6176 40.0068 39.6658L44.8864 49.2568C44.1487 49.08 43.3438 49.1395 42.6157 49.5099C42.1849 49.729 41.814 50.0376 41.5124 50.4166C41.3132 50.6666 41.3503 51.0414 41.61 51.25C41.8717 51.453 42.2425 51.4083 42.4509 51.1486C42.6428 50.9121 42.8824 50.7132 43.1568 50.5736C44.205 50.0403 45.4993 50.4617 46.0326 51.5099L47.8809 55.1428C48.7827 56.9154 48.0692 59.0877 46.2964 59.9897C44.5242 60.8916 42.3517 60.1876 41.4499 58.415C41.2384 57.9994 41.1281 57.5471 41.0849 57.0937C41.2682 56.7749 41.4361 56.435 41.5523 56.0786C41.6552 55.7625 41.4845 55.4269 41.1702 55.3277C40.8579 55.2322 40.5223 55.403 40.4193 55.7098C40.0877 56.718 39.3933 57.5416 38.4478 58.0226C36.4883 59.0196 34.0843 58.2369 33.0913 56.285C32.7306 55.5761 32.6084 54.7984 32.7043 54.0152C33.111 53.9091 33.5196 53.7778 33.9234 53.5724C34.3542 53.3532 34.7615 53.0787 35.121 52.7569C35.3643 52.537 35.3808 52.1641 35.1649 51.9188C34.949 51.6734 34.5757 51.6475 34.3306 51.8632C34.049 52.1216 33.7292 52.3419 33.3862 52.5164C31.1829 53.6374 28.4739 52.7554 27.353 50.552C26.8293 49.5227 26.7485 48.3737 27.0605 47.2888C28.2353 48.1643 29.7489 48.5173 31.2499 48.1567C31.2995 48.1412 31.3413 48.1293 31.3871 48.106C31.6272 47.9839 31.7574 47.7114 31.6941 47.4363C31.6191 47.1193 31.2926 46.9209 30.9718 46.9977C29.2381 47.4192 27.4475 46.5975 26.6369 45.0041C25.6711 43.1057 26.4316 40.7897 28.3223 39.8279C28.9168 39.5254 29.5833 39.3734 30.238 39.4146C30.569 39.4236 30.8446 39.1732 30.8558 38.8458C30.8842 38.5147 30.6259 38.2334 30.3024 38.2206C29.4375 38.1806 28.578 38.3685 27.8116 38.7584C27.5174 38.5097 27.2669 38.2245 27.0923 37.8814C26.3689 36.4595 26.9325 34.709 28.3543 33.9857C29.3531 33.4775 30.5206 33.5841 31.411 34.2492C31.6687 34.4445 32.047 34.3959 32.2421 34.1287C32.4373 33.871 32.3851 33.4945 32.1197 33.3032C31.731 33.0018 31.3012 32.7984 30.849 32.6636C30.8374 32.6407 30.8448 32.6179 30.8332 32.595C30.5422 32.0039 30.4895 31.3254 30.705 30.7022C31.1453 29.3983 32.5639 28.696 33.8579 29.146C34.5694 29.3839 35.128 29.9252 35.3891 30.6272C35.4124 30.692 35.4531 30.753 35.4954 30.7987L38.8626 37.4166Z" fill="black"/>
<path d="M60.1891 33.8469C59.4308 32.3564 58.0902 31.3058 56.4767 30.9176C56.3941 30.6045 56.2736 30.3012 56.1203 29.9999C55.044 27.8843 52.6783 26.8658 50.4727 27.3881C50.4084 26.9696 50.3044 26.5572 50.1066 26.1685C49.0845 24.1595 46.6153 23.3618 44.6138 24.3801C44.0687 24.6574 43.6102 25.0393 43.252 25.4953C42.802 24.9226 42.1906 24.4946 41.468 24.272C39.5354 23.6618 37.4657 24.7533 36.8673 26.6893C36.549 27.6861 36.6752 28.764 37.2171 29.6593C37.2249 29.6938 37.2386 29.7206 37.254 29.7509L49.7017 54.2175C50.8983 56.5695 53.7896 57.5173 56.1494 56.3168C58.5014 55.1202 59.4454 52.2213 58.2487 49.8691C58.1342 49.6441 57.9875 49.45 57.8426 49.2408C58.2954 49.1497 58.7537 49.022 59.1767 48.8068C61.7157 47.515 62.7363 44.3995 61.4446 41.8606C61.0276 41.041 60.386 40.3549 59.6231 39.8647C60.906 38.1806 61.2132 35.8599 60.1892 33.8472L60.1891 33.8469ZM52.3311 38.2384C52.7752 39.1114 52.8512 40.1094 52.5476 41.0411C52.495 41.1924 52.385 41.3157 52.2515 41.3836C52.1183 41.4514 51.9499 41.4697 51.7946 41.4192C51.4897 41.3199 51.3191 40.9846 51.4242 40.672C51.6284 40.045 51.5757 39.3664 51.277 38.7793C50.6563 37.5593 49.1494 37.0686 47.9294 37.6893C47.2585 38.0307 46.7845 38.646 46.6231 39.3762C46.5547 39.7036 46.2405 39.8973 45.9184 39.8308C45.5985 39.7586 45.3935 39.4405 45.4639 39.1261C45.6958 38.0437 46.3992 37.1339 47.3865 36.6316C49.1897 35.7142 51.4116 36.4313 52.331 38.2384L52.3311 38.2384Z" fill="black"/>
</g>
</g>
<rect x="0.236941" y="29.1792" width="63.3539" height="63.3539" transform="rotate(-27.183 0.236941 29.1792)" stroke="#272727" stroke-width="0.351966"/>
<defs>
<clipPath id="clip0_12621_110441">
<rect y="29.103" width="63.7058" height="63.7058" transform="rotate(-27.183 0 29.103)" fill="white"/>
</clipPath>
<clipPath id="clip1_12621_110441">
<rect width="40.0092" height="37.3072" fill="white" transform="translate(17 35) rotate(-26.9652)"/>
</clipPath>
</defs>
</svg>
